<svg width="28" height="28" viewBox="0 0 28 28" fill="none" xmlns="http://www.w3.org/2000/svg">
<circle cx="14" cy="14" r="12" stroke="#E8E8E8" stroke-width="3"/>
<path d="M14 26C20.6274 26 26 20.6274 26 14C26 7.37258 20.6274 2 14 2" stroke="#35B266" stroke-width="3"/>
<path d="M16.4785 19H10.6719V17.957L12.8809 15.7363C13.5332 15.0684 13.9648 14.5957 14.1758 14.3184C14.3906 14.0371 14.5469 13.7734 14.6445 13.5273C14.7422 13.2812 14.791 13.0176 14.791 12.7363C14.791 12.3496 14.6738 12.0449 14.4395 11.8223C14.209 11.5996 13.8887 11.4883 13.4785 11.4883C13.1504 11.4883 12.832 11.5488 12.5234 11.6699C12.2188 11.791 11.8652 12.0098 11.4629 12.3262L10.7188 11.418C11.1953 11.0156 11.6582 10.7305 12.1074 10.5625C12.5566 10.3945 13.0352 10.3105 13.543 10.3105C14.3398 10.3105 14.9785 10.5195 15.459 10.9375C15.9395 11.3516 16.1797 11.9102 16.1797 12.6133C16.1797 13 16.1094 13.3672 15.9688 13.7148C15.832 14.0625 15.6191 14.4219 15.3301 14.793C15.0449 15.1602 14.5684 15.6582 13.9004 16.2871L12.4121 17.7285V17.7871H16.4785V19Z" fill="#606060"/>
</svg>

